<?xml version="1.0" standalone="no"?>
<!DOCTYPE svg PUBLIC "-//W3C//DTD SVG 20010904//EN"
 "http://www.w3.org/TR/2001/REC-SVG-20010904/DTD/svg10.dtd">
<svg version="1.0" xmlns="http://www.w3.org/2000/svg"
 width="2000.000000pt" height="1822.000000pt" viewBox="0 0 2000.000000 1822.000000"
 preserveAspectRatio="xMidYMid meet">
<metadata>
Created by potrace 1.16, written by Peter Selinger 2001-2019
</metadata>
<g transform="translate(0.000000,1822.000000) scale(0.100000,-0.100000)"
fill="#000000" stroke="none">
<path d="M8074 15772 c-25 -5 -475 -453 -467 -466 3 -5 2 -6 -4 -3 -13 8 -106
-87 -96 -98 5 -4 3 -6 -3 -2 -5 3 -523 -507 -1149 -1134 l-1140 -1139 355
-354 c194 -195 358 -352 363 -349 6 3 7 2 4 -4 -7 -11 1056 -1076 1066 -1068
4 3 5 2 2 -2 -8 -10 447 -463 457 -457 5 3 7 1 6 -4 -4 -13 12 -30 403 -419
189 -189 506 -505 703 -703 l360 -360 730 -2 730 -3 26 -81 c70 -216 206 -404
390 -541 48 -36 208 -126 235 -133 6 -1 21 -7 35 -12 167 -65 432 -81 605 -38
44 11 89 22 100 25 126 30 333 161 459 290 85 88 224 320 229 384 1 11 4 21 8
21 3 0 17 48 29 108 39 182 30 383 -27 569 -9 29 -20 50 -25 47 -4 -3 -5 1 -3
8 8 21 -79 183 -142 266 -74 96 -168 183 -267 247 -71 45 -107 64 -201 106
-62 27 -208 61 -272 62 -40 1 -73 4 -73 7 0 10 -43 10 -145 0 -99 -10 -255
-46 -255 -59 0 -4 -11 -8 -24 -9 -55 -4 -264 -119 -249 -137 4 -4 3 -5 -4 -2
-14 9 -122 -83 -191 -162 -94 -108 -192 -287 -223 -408 l-13 -53 -626 0 -627
0 -1488 1489 c-819 820 -1494 1487 -1499 1484 -6 -3 -7 -2 -3 2 4 5 -45 62
-110 127 -64 64 -115 120 -113 122 3 3 529 530 1170 1171 l1164 1165 101 0
c188 0 3040 1 3115 0 l75 0 335 -334 c184 -184 338 -332 343 -329 6 3 7 2 4
-4 -7 -11 321 -339 335 -335 5 1 7 -1 4 -6 -7 -12 248 -264 258 -255 4 4 6 3
4 -3 -4 -15 424 -444 436 -437 5 3 6 2 3 -3 -3 -5 70 -85 162 -177 92 -92 176
-176 185 -186 17 -19 17 -23 -19 -93 -41 -79 -84 -187 -91 -228 -3 -14 -11
-56 -18 -95 -22 -109 -13 -317 17 -436 123 -477 548 -815 1032 -821 137 -2
230 12 356 53 351 114 615 391 714 749 32 118 44 315 26 440 -77 521 -543 927
-1061 924 -127 -1 -254 -18 -309 -42 -20 -9 -47 -17 -61 -19 -26 -4 -55 -16
-154 -65 l-60 -29 -176 176 c-97 97 -178 174 -180 173 -3 -2 -4 -1 -2 1 5 10
-1402 1410 -1412 1404 -5 -3 -6 -2 -3 3 8 13 -427 446 -438 437 -4 -5 -5 -3
-2 3 4 7 0 18 -9 25 -12 10 -77 13 -283 14 -146 0 -283 -3 -304 -6 -20 -4 -39
-4 -41 0 -2 3 -51 5 -108 4 -128 -2 -120 -1 -113 -13 3 -5 -5 -3 -19 3 -17 10
-77 13 -212 11 -104 -1 -193 -3 -199 -4 -5 -1 -12 -1 -15 0 -15 6 -383 4 -387
-3 -2 -4 -12 -3 -21 1 -9 5 -66 7 -127 5 -60 -1 -153 -2 -205 -2 -355 1 -1406
0 -1410 -2 -3 0 -18 0 -35 1 -55 4 -201 5 -221 2z m6661 -2603 c243 -72 416
-306 416 -559 -1 -244 -162 -467 -401 -555 -26 -10 -89 -19 -150 -22 -116 -5
-185 7 -281 50 -31 14 -60 23 -64 19 -4 -4 -5 -2 -3 4 2 6 -20 29 -47 51 -143
114 -218 273 -217 463 0 141 64 300 159 395 39 39 103 94 103 89 0 -2 11 3 26
12 14 9 64 31 111 48 77 28 97 31 182 29 62 -2 121 -10 166 -24z m-3169 -3160
c17 -5 40 -11 52 -14 55 -10 197 -109 247 -171 17 -20 38 -45 48 -55 9 -11 17
-21 17 -24 0 -3 7 -22 15 -42 37 -88 49 -150 50 -248 0 -85 -4 -112 -29 -182
-69 -195 -246 -342 -451 -372 -122 -19 -125 -19 -118 -8 4 6 -13 8 -46 5 -28
-3 -54 -2 -56 3 -3 4 -28 15 -56 24 -28 10 -80 37 -115 61 -39 26 -72 41 -82
38 -13 -5 -14 -4 -4 4 11 7 11 12 0 23 -48 48 -100 128 -128 196 -57 136 -52
330 12 458 82 164 255 290 429 313 73 9 169 5 215 -9z"/>
<path d="M9165 13840 c-377 -79 -665 -335 -799 -708 -145 -403 0 -897 343
-1174 182 -146 398 -226 641 -235 155 -6 283 15 420 68 173 66 361 210 476
363 56 73 125 208 158 308 l25 73 603 3 603 2 1549 -1547 c852 -852 1570
-1570 1595 -1596 l45 -48 -1160 -1160 -1159 -1159 -1635 0 -1635 1 -1028 1027
-1028 1028 35 70 c183 359 145 803 -97 1130 -278 377 -777 529 -1223 373 -489
-170 -795 -682 -708 -1184 55 -319 235 -588 506 -754 321 -196 742 -208 1066
-30 l75 41 1100 -1101 1100 -1101 1841 0 1841 0 1410 1410 1410 1410 -1850
1850 -1850 1850 -706 0 -706 0 -17 58 c-9 32 -34 96 -57 142 -129 267 -347
463 -619 555 -170 58 -390 71 -565 35z m337 -481 c190 -39 368 -205 429 -399
23 -75 28 -215 9 -295 -46 -202 -220 -377 -425 -430 -131 -33 -306 -10 -425
58 -30 17 -85 60 -121 97 -141 140 -199 345 -154 539 48 202 214 372 415 425
66 18 199 20 272 5z m-3061 -3173 c236 -82 388 -296 389 -545 0 -154 -56 -287
-170 -402 -239 -240 -602 -234 -835 13 -135 143 -185 339 -135 532 83 327 432
513 751 402z"/>
<path d="M15130 5105 c0 -25 1 -25 85 -25 l85 0 0 -1085 0 -1085 -85 0 c-84 0
-85 0 -85 -25 l0 -25 430 0 430 0 0 25 c0 24 -2 25 -65 25 l-65 0 0 463 c0
502 4 546 56 648 38 76 80 127 125 149 87 45 153 8 169 -95 6 -33 10 -305 10
-612 l0 -553 -60 0 c-57 0 -60 -1 -60 -25 l0 -25 405 0 405 0 0 25 c0 24 -2
25 -64 25 l-65 0 -3 528 c-4 494 -5 531 -24 593 -53 173 -158 262 -344 291
-87 14 -209 5 -294 -22 -59 -19 -79 -31 -131 -83 -36 -37 -73 -88 -92 -127
l-32 -65 -1 553 0 552 -365 0 -365 0 0 -25z"/>
<path d="M5410 4999 c-77 -13 -175 -46 -240 -82 -76 -42 -199 -167 -244 -248
-58 -106 -79 -208 -74 -359 9 -233 76 -365 243 -482 113 -79 176 -106 410
-177 263 -80 379 -133 463 -214 106 -103 110 -304 8 -424 -40 -46 -137 -97
-216 -114 -116 -25 -273 8 -396 82 -145 88 -348 321 -454 522 -18 35 -31 47
-47 47 -27 0 -26 23 -13 -309 15 -382 18 -411 40 -411 10 0 21 9 25 19 3 11
15 31 26 45 27 35 51 34 266 -9 308 -61 477 -67 648 -24 250 64 426 238 491
484 22 87 29 240 14 332 -15 97 -60 213 -105 275 -77 104 -232 200 -410 253
-404 121 -547 179 -621 253 -110 111 -91 314 40 413 71 53 149 74 282 74 108
0 112 -1 188 -38 133 -66 269 -214 402 -438 48 -80 63 -98 83 -99 l23 0 -6
148 c-3 81 -9 218 -12 305 -4 108 -10 157 -18 157 -6 0 -23 -13 -38 -30 -34
-39 -68 -39 -218 1 -206 54 -399 71 -540 48z"/>
<path d="M10510 4933 c0 -59 -18 -495 -25 -620 l-5 -93 28 0 c26 0 30 5 46 58
33 105 105 283 156 381 56 109 104 171 161 207 47 29 137 54 196 54 l43 0 0
-1000 0 -1000 -130 0 -130 0 0 -30 0 -30 550 0 550 0 0 30 0 30 -125 0 -125 0
0 1000 0 1000 43 0 c104 0 212 -50 276 -127 61 -74 160 -290 230 -505 20 -59
26 -68 47 -68 22 0 24 4 24 48 0 87 -21 626 -26 670 l-5 42 -890 0 -889 0 0
-47z"/>
<path d="M6845 4760 l-270 -66 -5 -195 -5 -194 -82 -3 c-80 -3 -83 -4 -83 -27
0 -23 3 -24 83 -27 l82 -3 5 -555 c6 -613 4 -599 72 -698 114 -165 518 -214
732 -88 49 29 92 78 126 146 l23 45 12 -36 c48 -136 151 -200 356 -220 211
-21 321 28 396 175 l20 39 22 -47 c47 -97 145 -149 310 -166 198 -21 329 21
394 123 32 51 63 164 73 266 6 66 5 71 -13 71 -17 0 -21 -11 -31 -89 -21 -154
-56 -221 -117 -221 -21 0 -40 9 -56 26 l-24 26 -6 431 c-6 473 -12 524 -69
637 -81 159 -233 215 -580 214 -165 0 -208 -3 -281 -21 -229 -58 -331 -159
-333 -331 -1 -92 20 -155 67 -199 36 -35 118 -63 182 -63 102 0 212 60 246
133 21 47 25 140 8 200 -9 35 -12 37 -48 37 -32 0 -40 4 -45 23 -11 42 -6 112
10 135 20 30 76 52 130 52 34 0 49 -6 77 -33 19 -18 40 -50 46 -72 18 -62 31
-243 31 -436 l0 -176 -172 -6 c-426 -17 -569 -92 -614 -324 -18 -96 -50 -168
-100 -223 -62 -69 -138 -88 -209 -54 -78 37 -85 98 -85 752 l0 532 200 0 200
0 0 25 0 25 -200 0 -200 0 -2 263 -3 262 -270 -65z m1455 -1402 c0 -195 -15
-290 -55 -350 -48 -72 -114 -77 -142 -10 -21 50 -24 316 -4 384 25 88 92 143
179 147 l22 1 0 -172z"/>
<path d="M10050 4316 c-130 -35 -231 -128 -281 -255 l-18 -46 -1 143 0 142
-365 0 -365 0 0 -25 c0 -25 1 -25 85 -25 l85 0 0 -670 0 -670 -85 0 c-84 0
-85 0 -85 -25 l0 -25 470 0 470 0 0 25 0 25 -105 0 -105 0 0 458 c0 426 1 464
20 537 11 43 31 101 43 129 34 72 108 151 162 172 47 18 105 15 131 -7 17 -14
18 -78 2 -114 -10 -22 -17 -25 -64 -25 l-53 0 -12 -42 c-18 -67 -6 -154 28
-201 43 -62 105 -90 202 -90 175 0 261 97 261 294 0 161 -70 257 -215 295 -61
17 -145 17 -205 0z"/>
<path d="M13015 4324 c-91 -14 -209 -51 -275 -85 -264 -137 -382 -361 -367
-699 7 -148 25 -227 77 -335 111 -230 305 -345 621 -371 169 -13 392 30 492
97 72 47 133 123 182 223 59 123 62 132 31 138 -22 4 -27 -1 -45 -52 -64 -175
-192 -284 -363 -311 -139 -22 -250 14 -314 100 -69 94 -108 283 -102 501 l3
115 424 3 424 2 -6 108 c-10 191 -59 314 -163 412 -69 64 -152 108 -254 134
-64 17 -302 29 -365 20z m175 -72 c58 -42 79 -156 80 -419 l0 -133 -160 0
-160 0 0 123 c0 215 30 365 83 415 47 45 107 50 157 14z"/>
<path d="M14446 4320 c-217 -35 -389 -127 -491 -263 -57 -75 -71 -101 -101
-189 -49 -144 -57 -372 -19 -538 64 -283 264 -452 577 -491 166 -20 362 7 481
67 112 57 205 177 255 327 22 67 23 80 11 88 -26 16 -37 9 -44 -28 -15 -83
-110 -235 -178 -287 -70 -54 -124 -70 -232 -70 -117 -1 -159 16 -219 86 -79
92 -100 233 -93 632 6 322 16 398 67 502 42 85 91 119 175 119 34 0 73 -6 86
-13 52 -28 74 -98 57 -184 l-11 -58 -52 0 -52 0 -7 -37 c-22 -137 21 -236 124
-289 22 -11 66 -19 116 -22 72 -4 89 -1 137 21 90 41 129 122 130 267 0 99
-27 162 -97 229 -62 58 -132 95 -218 116 -77 19 -321 27 -402 15z"/>
</g>
</svg>
